<svg width="242" height="242" viewBox="0 0 242 242" fill="none" xmlns="http://www.w3.org/2000/svg">
<circle cx="121" cy="121" r="121" fill="white"/>
<g filter="url(#filter0_d_1590_3095)">
<path d="M9.81495 132.047C12.4741 96.2482 165.93 -27.2213 124.321 76.7367C82.7116 180.695 231.856 115.267 229.197 151.066C226.538 186.865 175.272 211.628 114.691 206.376C54.1106 201.125 7.1558 167.846 9.81495 132.047Z" fill="#9AFFF3"/>
</g>
<g filter="url(#filter1_d_1590_3095)">
<path d="M162.533 86.4062L158.104 112H155.01L148.453 92.1191L145.008 112H141.844L146.273 86.4062H149.35L155.941 106.34L159.404 86.4062H162.533ZM176.494 86.4062L172.046 112H168.9L173.33 86.4062H176.494ZM182.875 97.9199L182.382 100.697H173.4L173.892 97.9199H182.875ZM186.285 86.4062L185.793 89.1836H175.386L175.879 86.4062H186.285ZM203.902 86.4062L199.454 112H196.325L200.773 86.4062H203.902ZM210.423 86.4062L209.931 89.1836H193.759L194.251 86.4062H210.423Z" fill="black"/>
<path d="M162.533 86.4062L163.519 86.5768L163.721 85.4062H162.533V86.4062ZM158.104 112V113H158.945L159.089 112.171L158.104 112ZM155.01 112L154.06 112.313L154.287 113H155.01V112ZM148.453 92.1191L149.403 91.8059L147.468 91.9484L148.453 92.1191ZM145.008 112V113H145.849L145.993 112.171L145.008 112ZM141.844 112L140.858 111.829L140.656 113H141.844V112ZM146.273 86.4062V85.4062H145.432L145.288 86.2357L146.273 86.4062ZM149.35 86.4062L150.299 86.0923L150.072 85.4062H149.35V86.4062ZM155.941 106.34L154.992 106.654L156.927 106.511L155.941 106.34ZM159.404 86.4062V85.4062H158.563L158.419 86.2351L159.404 86.4062ZM161.548 86.2357L157.118 111.829L159.089 112.171L163.519 86.5768L161.548 86.2357ZM158.104 111H155.01V113H158.104V111ZM155.959 111.687L149.403 91.8059L147.503 92.4323L154.06 112.313L155.959 111.687ZM147.468 91.9484L144.022 111.829L145.993 112.171L149.438 92.2899L147.468 91.9484ZM145.008 111H141.844V113H145.008V111ZM142.829 112.171L147.259 86.5768L145.288 86.2357L140.858 111.829L142.829 112.171ZM146.273 87.4062H149.35V85.4062H146.273V87.4062ZM148.4 86.7202L154.992 106.654L156.891 106.026L150.299 86.0923L148.4 86.7202ZM156.927 106.511L160.39 86.5774L158.419 86.2351L154.956 106.169L156.927 106.511ZM159.404 87.4062H162.533V85.4062H159.404V87.4062ZM176.494 86.4062L177.479 86.5774L177.682 85.4062H176.494V86.4062ZM172.046 112V113H172.888L173.032 112.171L172.046 112ZM168.9 112L167.915 111.829L167.712 113H168.9V112ZM173.33 86.4062V85.4062H172.488L172.344 86.2357L173.33 86.4062ZM182.875 97.9199L183.859 98.0944L184.067 96.9199H182.875V97.9199ZM182.382 100.697V101.697H183.221L183.367 100.872L182.382 100.697ZM173.4 100.697L172.415 100.523L172.207 101.697H173.4V100.697ZM173.892 97.9199V96.9199H173.054L172.908 97.7454L173.892 97.9199ZM186.285 86.4062L187.269 86.5807L187.478 85.4062H186.285V86.4062ZM185.793 89.1836V90.1836H186.631L186.777 89.3581L185.793 89.1836ZM175.386 89.1836L174.402 89.0091L174.194 90.1836H175.386V89.1836ZM175.879 86.4062V85.4062H175.04L174.894 86.2318L175.879 86.4062ZM175.509 86.2351L171.061 111.829L173.032 112.171L177.479 86.5774L175.509 86.2351ZM172.046 111H168.9V113H172.046V111ZM169.885 112.171L174.315 86.5768L172.344 86.2357L167.915 111.829L169.885 112.171ZM173.33 87.4062H176.494V85.4062H173.33V87.4062ZM181.89 97.7454L181.398 100.523L183.367 100.872L183.859 98.0944L181.89 97.7454ZM182.382 99.6973H173.4V101.697H182.382V99.6973ZM174.385 100.872L174.877 98.0944L172.908 97.7454L172.415 100.523L174.385 100.872ZM173.892 98.9199H182.875V96.9199H173.892V98.9199ZM185.3 86.2318L184.808 89.0091L186.777 89.3581L187.269 86.5807L185.3 86.2318ZM185.793 88.1836H175.386V90.1836H185.793V88.1836ZM176.371 89.3581L176.863 86.5807L174.894 86.2318L174.402 89.0091L176.371 89.3581ZM175.879 87.4062H186.285V85.4062H175.879V87.4062ZM203.902 86.4062L204.887 86.5774L205.09 85.4062H203.902V86.4062ZM199.454 112V113H200.296L200.44 112.171L199.454 112ZM196.325 112L195.34 111.829L195.137 113H196.325V112ZM200.773 86.4062V85.4062H199.931L199.787 86.2351L200.773 86.4062ZM210.423 86.4062L211.408 86.5807L211.616 85.4062H210.423V86.4062ZM209.931 89.1836V90.1836H210.769L210.916 89.3581L209.931 89.1836ZM193.759 89.1836L192.774 89.0091L192.566 90.1836H193.759V89.1836ZM194.251 86.4062V85.4062H193.413L193.267 86.2318L194.251 86.4062ZM202.916 86.2351L198.469 111.829L200.44 112.171L204.887 86.5774L202.916 86.2351ZM199.454 111H196.325V113H199.454V111ZM197.311 112.171L201.758 86.5774L199.787 86.2351L195.34 111.829L197.311 112.171ZM200.773 87.4062H203.902V85.4062H200.773V87.4062ZM209.438 86.2318L208.946 89.0091L210.916 89.3581L211.408 86.5807L209.438 86.2318ZM209.931 88.1836H193.759V90.1836H209.931V88.1836ZM194.744 89.3581L195.236 86.5807L193.267 86.2318L192.774 89.0091L194.744 89.3581ZM194.251 87.4062H210.423V85.4062H194.251V87.4062Z" fill="black"/>
</g>
<defs>
<filter id="filter0_d_1590_3095" x="5.7074" y="35.9768" width="227.525" height="179.102" filterUnits="userSpaceOnUse" color-interpolation-filters="sRGB">
<feFlood flood-opacity="0" result="BackgroundImageFix"/>
<feColorMatrix in="SourceAlpha" type="matrix" values="0 0 0 0 0 0 0 0 0 0 0 0 0 0 0 0 0 0 127 0" result="hardAlpha"/>
<feOffset dy="4"/>
<feGaussianBlur stdDeviation="2"/>
<feComposite in2="hardAlpha" operator="out"/>
<feColorMatrix type="matrix" values="0 0 0 0 0.345833 0 0 0 0 0.345833 0 0 0 0 0.345833 0 0 0 0.25 0"/>
<feBlend mode="normal" in2="BackgroundImageFix" result="effect1_dropShadow_1590_3095"/>
<feBlend mode="normal" in="SourceGraphic" in2="effect1_dropShadow_1590_3095" result="shape"/>
</filter>
<filter id="filter1_d_1590_3095" x="137.844" y="86.4062" width="76.5793" height="33.5938" filterUnits="userSpaceOnUse" color-interpolation-filters="sRGB">
<feFlood flood-opacity="0" result="BackgroundImageFix"/>
<feColorMatrix in="SourceAlpha" type="matrix" values="0 0 0 0 0 0 0 0 0 0 0 0 0 0 0 0 0 0 127 0" result="hardAlpha"/>
<feOffset dy="4"/>
<feGaussianBlur stdDeviation="2"/>
<feComposite in2="hardAlpha" operator="out"/>
<feColorMatrix type="matrix" values="0 0 0 0 0 0 0 0 0 0 0 0 0 0 0 0 0 0 0.25 0"/>
<feBlend mode="normal" in2="BackgroundImageFix" result="effect1_dropShadow_1590_3095"/>
<feBlend mode="normal" in="SourceGraphic" in2="effect1_dropShadow_1590_3095" result="shape"/>
</filter>
</defs>
</svg>
