<svg width="1600" height="683" viewBox="0 0 1600 683" fill="none" xmlns="http://www.w3.org/2000/svg">
<rect y="276" width="1600" height="407" fill="#272343"/>
<path d="M1556.06 100.152C1485.36 90.6743 1193.05 297.726 1115.5 299.084C1037.94 300.442 961.236 238.481 1026.05 237.339C1090.86 236.198 1397.61 30.8051 1466.62 38.4074C1535.62 46.0098 1626.76 109.63 1556.06 100.152Z" fill="#9AFFF3"/>
<path d="M31.32 289.198C39.2288 190.642 635.948 -138.014 479.24 145.542C322.532 429.097 906.429 260.232 898.52 358.788C890.611 457.344 690.071 521.661 450.6 502.445C211.129 483.228 23.4113 387.754 31.32 289.198Z" fill="#272343"/>
<path d="M631.651 280.828C551.515 268.686 241.328 498.94 154.434 499.008C67.5395 499.077 -23.8389 427.043 48.7776 426.978C121.394 426.913 447.92 198.824 525.995 208.798C604.07 218.772 711.788 292.971 631.651 280.828Z" fill="#C3FCFF"/>
<g style="mix-blend-mode:hard-light">
<path d="M1086.98 201.86C1006.98 189.445 694.286 418.639 607.393 418.412C520.5 418.184 429.91 345.841 502.525 346.023C575.141 346.205 904.152 119.231 982.116 129.471C1060.08 139.711 1166.99 214.275 1086.98 201.86Z" fill="#FDFDFD"/>
</g>
</svg>
